<svg width="216" height="215" viewBox="0 0 216 215" fill="none" xmlns="http://www.w3.org/2000/svg">
<g filter="url(#filter0_b_3_5209)">
<ellipse cx="69.8736" cy="69.8736" rx="69.8736" ry="69.8736" transform="matrix(0.866188 -0.499718 0.500283 0.865862 12.4878 81.4514)" fill="white" fill-opacity="0.1"/>
</g>
<path d="M168.059 72.368C187.226 105.543 175.862 147.957 142.674 167.103C109.487 186.249 67.0452 174.877 47.8774 141.702C28.7096 108.528 40.0745 66.1134 73.2616 46.9673C106.449 27.8211 148.891 39.1934 168.059 72.368Z" stroke="white" stroke-opacity="0.5"/>
<path d="M140.663 88.6129C151.005 106.513 144.873 129.398 126.966 139.728C109.06 150.059 86.1597 143.923 75.8175 126.023C65.4752 108.123 71.6073 85.2382 89.5138 74.9076C107.42 64.5771 130.32 70.7132 140.663 88.6129Z" stroke="white" stroke-opacity="0.5"/>
<path d="M117.636 107.404L102.668 116.041L102.659 98.7516L117.636 107.404Z" fill="white"/>
<path d="M165.163 116.952C165.108 117.288 164.991 117.572 164.811 117.804C164.632 118.036 164.404 118.199 164.126 118.295C163.853 118.396 163.554 118.42 163.227 118.367C162.906 118.314 162.636 118.194 162.415 118.006C162.194 117.823 162.036 117.588 161.942 117.301C161.852 117.019 161.835 116.708 161.891 116.367L162.068 115.283C162.072 115.257 162.062 115.242 162.036 115.238L160.087 114.917C160.061 114.913 160.04 114.899 160.023 114.876C160.01 114.858 160.006 114.836 160.01 114.811L160.156 113.917C160.16 113.892 160.172 113.87 160.19 113.852C160.213 113.841 160.237 113.837 160.263 113.841L165.439 114.692C165.464 114.696 165.483 114.707 165.496 114.725C165.513 114.749 165.52 114.773 165.516 114.799L165.163 116.952ZM162.773 116.394C162.735 116.629 162.77 116.828 162.879 116.992C162.994 117.157 163.16 117.258 163.38 117.294C163.604 117.331 163.796 117.289 163.957 117.169C164.118 117.049 164.218 116.872 164.256 116.638L164.415 115.669C164.419 115.643 164.409 115.628 164.383 115.624L162.977 115.393C162.951 115.389 162.936 115.399 162.932 115.425L162.773 116.394Z" fill="white"/>
<path d="M158.533 121.911C158.54 121.886 158.555 121.866 158.576 121.851C158.6 121.843 158.625 121.843 158.649 121.85L163.641 123.437C163.666 123.444 163.683 123.458 163.693 123.477C163.707 123.503 163.71 123.529 163.702 123.553L163.428 124.416C163.42 124.441 163.404 124.457 163.38 124.466C163.359 124.481 163.336 124.484 163.311 124.476L159.161 123.158C159.136 123.15 159.12 123.158 159.112 123.183L158.347 125.594C158.339 125.619 158.323 125.635 158.299 125.644C158.278 125.659 158.255 125.662 158.23 125.654L157.514 125.427C157.489 125.419 157.47 125.402 157.457 125.376C157.447 125.357 157.446 125.335 157.453 125.31L158.533 121.911Z" fill="white"/>
<path d="M154.724 131.531C154.747 131.484 154.785 131.466 154.838 131.474L155.622 131.602C155.645 131.602 155.66 131.595 155.667 131.581L156.508 129.873C156.515 129.859 156.511 129.843 156.497 129.825L155.915 129.288C155.876 129.252 155.867 129.21 155.89 129.164L156.324 128.282C156.338 128.255 156.355 128.237 156.376 128.23C156.401 128.225 156.428 128.236 156.456 128.261L160.417 132.073C160.456 132.11 160.465 132.152 160.442 132.198L159.905 133.287C159.882 133.334 159.844 133.352 159.791 133.343L154.353 132.529C154.342 132.529 154.329 132.526 154.315 132.519C154.273 132.499 154.265 132.463 154.29 132.412L154.724 131.531ZM157.202 130.482C157.176 130.464 157.158 130.466 157.146 130.489L156.544 131.711C156.531 131.738 156.54 131.755 156.572 131.759L158.945 132.151C158.966 132.155 158.976 132.152 158.976 132.14C158.981 132.131 158.977 132.121 158.965 132.109L157.202 130.482Z" fill="white"/>
<path d="M151.316 137.261C151.331 137.24 151.351 137.226 151.376 137.218C151.402 137.217 151.425 137.225 151.446 137.24L153.038 138.383C153.055 138.395 153.069 138.402 153.08 138.404L156.617 138.981C156.639 138.984 156.655 138.989 156.663 138.995C156.697 139.019 156.697 139.054 156.664 139.1L156.095 139.892C156.065 139.934 156.025 139.95 155.975 139.939L153.736 139.522C153.702 139.517 153.693 139.529 153.709 139.56L154.818 141.547C154.844 141.591 154.842 141.634 154.812 141.676L154.234 142.48C154.213 142.509 154.191 142.522 154.168 142.519C154.146 142.522 154.125 142.507 154.105 142.473L152.439 139.296C152.434 139.286 152.423 139.274 152.406 139.262L150.813 138.119C150.793 138.104 150.78 138.082 150.775 138.053C150.771 138.032 150.777 138.01 150.792 137.989L151.316 137.261Z" fill="white"/>
<path d="M141.888 147.517C142.198 147.261 142.526 147.099 142.87 147.029C143.21 146.963 143.54 146.99 143.859 147.109C144.181 147.232 144.465 147.443 144.711 147.741L145.766 149.02C146.009 149.315 146.159 149.63 146.215 149.965C146.27 150.3 146.232 150.626 146.098 150.943C145.964 151.268 145.742 151.557 145.431 151.813C145.116 152.072 144.789 152.235 144.449 152.3C144.108 152.374 143.778 152.351 143.459 152.232C143.14 152.113 142.859 151.906 142.616 151.611L141.562 150.333C141.315 150.034 141.162 149.715 141.103 149.375C141.044 149.036 141.082 148.705 141.216 148.38C141.349 148.064 141.573 147.776 141.888 147.517ZM142.484 148.24C142.265 148.42 142.145 148.636 142.125 148.886C142.104 149.137 142.189 149.378 142.38 149.609L143.464 150.924C143.655 151.155 143.875 151.285 144.126 151.313C144.375 151.348 144.612 151.274 144.835 151.09C145.054 150.91 145.172 150.692 145.189 150.437C145.206 150.19 145.119 149.95 144.928 149.719L143.844 148.405C143.653 148.174 143.435 148.043 143.188 148.011C142.938 147.983 142.703 148.059 142.484 148.24Z" fill="white"/>
<path d="M134.831 152.556C135.175 152.358 135.518 152.25 135.859 152.232C136.196 152.216 136.508 152.287 136.795 152.443C137.08 152.606 137.315 152.847 137.498 153.164L139.266 156.221C139.279 156.244 139.282 156.265 139.277 156.286C139.269 156.315 139.254 156.335 139.232 156.348L138.447 156.8C138.425 156.813 138.402 156.814 138.378 156.804C138.352 156.801 138.333 156.789 138.32 156.766L136.549 153.702C136.412 153.465 136.229 153.315 136.001 153.249C135.77 153.191 135.537 153.231 135.3 153.367C135.063 153.504 134.914 153.685 134.854 153.91C134.791 154.143 134.829 154.378 134.966 154.614L136.737 157.678C136.75 157.701 136.754 157.722 136.748 157.744C136.74 157.772 136.725 157.792 136.703 157.805L135.918 158.257C135.896 158.27 135.873 158.272 135.849 158.261C135.824 158.258 135.804 158.246 135.791 158.223L134.024 155.166C133.84 154.849 133.751 154.525 133.757 154.194C133.76 153.87 133.855 153.565 134.042 153.279C134.223 152.995 134.486 152.755 134.831 152.556Z" fill="white"/>
<path d="M126.134 156.738C126.182 156.72 126.224 156.729 126.26 156.765L127.928 158.426C127.945 158.442 127.963 158.446 127.983 158.438L128.656 158.183C128.68 158.174 128.688 158.157 128.679 158.133L127.926 156.158C127.917 156.134 127.919 156.109 127.93 156.082C127.939 156.062 127.956 156.047 127.98 156.038L128.827 155.717C128.851 155.708 128.876 155.707 128.901 155.714C128.923 155.728 128.938 155.747 128.947 155.771L130.81 160.662C130.819 160.686 130.819 160.708 130.81 160.728C130.798 160.755 130.78 160.773 130.756 160.782L128.685 161.567C128.376 161.684 128.082 161.724 127.803 161.686C127.518 161.65 127.269 161.541 127.056 161.357C126.837 161.174 126.67 160.931 126.554 160.628C126.429 160.3 126.404 159.986 126.478 159.688C126.554 159.394 126.721 159.143 126.979 158.935C126.999 158.916 127 158.897 126.981 158.876L125.217 157.202C125.2 157.186 125.189 157.174 125.186 157.164C125.171 157.125 125.19 157.096 125.243 157.076L126.134 156.738ZM129.452 160.274C129.477 160.265 129.484 160.248 129.475 160.224L129.004 158.987C128.994 158.963 128.978 158.955 128.954 158.965L128.005 159.324C127.802 159.401 127.661 159.524 127.582 159.692C127.497 159.862 127.492 160.043 127.565 160.236C127.639 160.429 127.764 160.561 127.94 160.632C128.113 160.71 128.301 160.711 128.504 160.634L129.452 160.274Z" fill="white"/>
<path d="M116.327 159.266C116.352 159.262 116.376 159.266 116.399 159.279C116.417 159.297 116.428 159.319 116.432 159.344L117.196 164.52C117.2 164.546 117.195 164.567 117.182 164.585C117.164 164.608 117.143 164.622 117.117 164.626L116.221 164.757C116.195 164.761 116.173 164.753 116.155 164.735C116.132 164.723 116.119 164.704 116.115 164.678L115.351 159.502C115.348 159.477 115.355 159.452 115.372 159.429C115.385 159.411 115.404 159.401 115.43 159.397L116.327 159.266Z" fill="white"/>
<path d="M108.599 165.22C108.6 165.246 108.592 165.267 108.577 165.283C108.557 165.304 108.534 165.314 108.508 165.315L107.602 165.329C107.576 165.33 107.555 165.32 107.539 165.299C107.518 165.284 107.507 165.264 107.507 165.238L107.418 160.007C107.417 159.982 107.427 159.958 107.448 159.937C107.463 159.921 107.483 159.913 107.509 159.913L108.385 159.899C108.436 159.898 108.473 159.918 108.494 159.959L110.557 163.239C110.567 163.254 110.578 163.259 110.588 163.254C110.598 163.254 110.603 163.243 110.603 163.223L110.532 159.958C110.531 159.932 110.541 159.909 110.562 159.888C110.577 159.872 110.597 159.864 110.623 159.863L111.529 159.849C111.555 159.848 111.579 159.856 111.599 159.871C111.615 159.891 111.623 159.914 111.624 159.94L111.713 165.171C111.713 165.197 111.706 165.217 111.691 165.233C111.671 165.254 111.647 165.265 111.622 165.265L110.746 165.279C110.695 165.28 110.658 165.26 110.637 165.219L108.582 161.955C108.572 161.939 108.561 161.932 108.551 161.932C108.541 161.937 108.536 161.95 108.536 161.971L108.599 165.22Z" fill="white"/>
<path d="M98.4794 164.504C98.4538 164.5 98.4349 164.487 98.4225 164.464C98.4042 164.446 98.397 164.424 98.4007 164.398L98.5091 163.648C98.5128 163.622 98.5264 163.601 98.5498 163.583C98.5673 163.57 98.5889 163.566 98.6144 163.569L99.9869 163.769C100.012 163.772 100.027 163.761 100.031 163.736L100.652 159.44C100.655 159.414 100.669 159.393 100.692 159.375C100.71 159.362 100.731 159.358 100.757 159.361L101.654 159.492C101.68 159.495 101.702 159.506 101.72 159.525C101.732 159.547 101.736 159.571 101.733 159.597L101.112 163.893C101.108 163.918 101.119 163.933 101.145 163.937L102.479 164.131C102.504 164.134 102.526 164.145 102.545 164.164C102.557 164.186 102.561 164.21 102.558 164.236L102.449 164.986C102.445 165.012 102.435 165.031 102.417 165.044C102.394 165.062 102.369 165.069 102.344 165.065L98.4794 164.504Z" fill="white"/>
<path d="M92.1218 157.366C92.1711 157.382 92.1988 157.415 92.2049 157.465L92.4992 159.799C92.503 159.821 92.5148 159.836 92.5345 159.842L93.2231 160.054C93.2478 160.062 93.264 160.053 93.2716 160.029L93.8936 158.01C93.9012 157.986 93.918 157.966 93.9438 157.953C93.9631 157.943 93.9852 157.941 94.0098 157.949L94.8761 158.216C94.9008 158.224 94.9208 158.238 94.9359 158.259C94.9447 158.283 94.9452 158.308 94.9376 158.332L93.3972 163.33C93.3896 163.355 93.3761 163.373 93.3568 163.383C93.331 163.396 93.3057 163.399 93.281 163.392L91.1634 162.739C90.8475 162.641 90.5908 162.492 90.3934 162.29C90.191 162.088 90.0621 161.848 90.0067 161.572C89.9463 161.294 89.964 161 90.0597 160.69C90.163 160.354 90.3358 160.092 90.5781 159.902C90.8188 159.717 91.1049 159.622 91.4364 159.616C91.4642 159.614 91.4769 159.599 91.4746 159.572L91.1125 157.169C91.1087 157.146 91.1083 157.129 91.1114 157.12C91.1235 157.08 91.1567 157.069 91.211 157.086L92.1218 157.366ZM92.5646 162.191C92.5893 162.199 92.6054 162.19 92.613 162.165L93.0027 160.901C93.0103 160.877 93.0017 160.86 92.977 160.853L92.0071 160.554C91.7998 160.49 91.6129 160.499 91.4466 160.583C91.2754 160.665 91.1594 160.805 91.0986 161.002C91.0378 161.199 91.0551 161.38 91.1504 161.544C91.2392 161.712 91.3873 161.828 91.5946 161.892L92.5646 162.191Z" fill="white"/>
<path d="M85.5979 154.671C85.9591 154.85 86.242 155.082 86.4466 155.367C86.6465 155.65 86.7577 155.961 86.7801 156.3C86.8002 156.644 86.7244 156.989 86.5528 157.336L85.8184 158.82C85.6491 159.162 85.4229 159.427 85.1397 159.615C84.8565 159.803 84.5428 159.901 84.1987 159.909C83.8477 159.919 83.4916 159.835 83.1304 159.657C82.7646 159.476 82.4817 159.244 82.2818 158.961C82.0749 158.68 81.9603 158.37 81.9379 158.031C81.9155 157.692 81.9889 157.351 82.1582 157.009L82.8927 155.525C83.0643 155.179 83.2928 154.909 83.5783 154.717C83.8638 154.524 84.182 154.423 84.5331 154.412C84.8772 154.404 85.2321 154.49 85.5979 154.671ZM85.1827 155.51C84.928 155.384 84.6819 155.363 84.4444 155.447C84.2069 155.531 84.0218 155.707 83.8891 155.975L83.1341 157.501C83.0014 157.769 82.9737 158.023 83.0511 158.262C83.1215 158.504 83.2864 158.689 83.5457 158.818C83.8003 158.944 84.0476 158.962 84.2874 158.874C84.5202 158.788 84.703 158.61 84.8357 158.342L85.5907 156.817C85.7234 156.549 85.7534 156.296 85.6807 156.059C85.6033 155.819 85.4373 155.636 85.1827 155.51Z" fill="white"/>
<path d="M74.609 147.713C74.6479 147.747 74.6563 147.789 74.634 147.838L72.3926 152.825L72.378 152.853C72.3441 152.892 72.3057 152.893 72.2629 152.855L71.5275 152.213C71.4847 152.176 71.4744 152.133 71.4967 152.084L73.2065 148.564C73.2128 148.549 73.212 148.538 73.2042 148.531C73.1965 148.524 73.1855 148.525 73.1714 148.533L69.9209 150.708C69.8752 150.737 69.831 150.732 69.7882 150.695L69.0704 150.068C69.047 150.048 69.0363 150.025 69.0382 149.999C69.0401 149.974 69.0551 149.952 69.0833 149.936L73.7468 147.063C73.7925 147.035 73.8347 147.037 73.8736 147.071L74.609 147.713Z" fill="white"/>
<path d="M69.3198 142.61C69.3369 142.629 69.3465 142.652 69.3485 142.677C69.3433 142.703 69.331 142.724 69.3117 142.741L65.3879 146.201C65.3685 146.218 65.3479 146.226 65.3261 146.225C65.2969 146.223 65.2738 146.212 65.2567 146.193L64.6564 145.514C64.6393 145.495 64.6333 145.472 64.6386 145.447C64.6365 145.421 64.6451 145.4 64.6645 145.383L68.5883 141.923C68.6076 141.906 68.6319 141.898 68.661 141.9C68.6829 141.901 68.7024 141.911 68.7195 141.931L69.3198 142.61Z" fill="white"/>
<path d="M66.2078 138.912C66.2223 138.934 66.2289 138.957 66.2276 138.983C66.2192 139.007 66.2042 139.027 66.1829 139.041L61.8445 141.967C61.8231 141.981 61.8017 141.986 61.7801 141.982C61.7515 141.977 61.7299 141.963 61.7154 141.942L60.6306 140.338C60.4137 140.017 60.2819 139.698 60.2355 139.381C60.1818 139.062 60.2128 138.767 60.3285 138.496C60.4442 138.225 60.6368 137.998 60.9064 137.817L62.6777 136.622C62.9472 136.44 63.2295 136.347 63.5245 136.341C63.8196 136.335 64.1073 136.415 64.3877 136.581C64.6609 136.745 64.906 136.988 65.123 137.309L66.2078 138.912ZM64.8394 138.63C64.8608 138.616 64.8643 138.598 64.8498 138.576L64.3248 137.8C64.1917 137.603 64.0183 137.49 63.8047 137.46C63.5882 137.425 63.3672 137.481 63.1419 137.626L61.6658 138.622C61.4433 138.772 61.3077 138.953 61.259 139.167C61.2073 139.376 61.2509 139.583 61.3898 139.789L61.9105 140.558C61.925 140.58 61.9429 140.583 61.9643 140.569L64.8394 138.63Z" fill="white"/>
<path d="M55.924 130.173C55.9474 130.162 55.9728 130.161 56.0003 130.171C56.0209 130.178 56.0367 130.194 56.0477 130.217L57.1284 132.516C57.1394 132.539 57.1566 132.545 57.18 132.534L58.2667 132.025C58.2901 132.014 58.2963 131.997 58.2853 131.974L57.5769 130.467C57.5659 130.444 57.5665 130.421 57.5786 130.398C57.5838 130.373 57.5981 130.355 57.6215 130.344L58.3016 130.025C58.3249 130.014 58.3504 130.014 58.3778 130.024C58.3985 130.031 58.4143 130.046 58.4252 130.07L59.1337 131.576C59.1446 131.6 59.1618 131.606 59.1852 131.595L60.321 131.063C60.3444 131.052 60.3506 131.035 60.3396 131.011L59.2588 128.713C59.2479 128.69 59.2484 128.667 59.2605 128.644C59.2658 128.619 59.2801 128.601 59.3034 128.59L59.9835 128.271C60.0069 128.26 60.0323 128.26 60.0598 128.27C60.0804 128.277 60.0962 128.292 60.1072 128.316L61.6295 131.553C61.6405 131.576 61.6434 131.601 61.6381 131.626C61.626 131.649 61.6083 131.666 61.5849 131.676L56.8453 133.896C56.8219 133.907 56.7999 133.909 56.7793 133.902C56.7518 133.892 56.7326 133.875 56.7216 133.852L55.1993 130.615C55.1883 130.591 55.1889 130.568 55.201 130.545C55.2062 130.52 55.2205 130.502 55.2439 130.491L55.924 130.173Z" fill="white"/>
<path d="M58.202 122.822C58.3149 123.209 58.3355 123.574 58.2637 123.917C58.1905 124.255 58.0365 124.547 57.8017 124.793C57.5619 125.04 57.2561 125.218 56.8843 125.326L55.2929 125.788C54.9261 125.895 54.5775 125.907 54.2471 125.826C53.9167 125.745 53.632 125.58 53.3929 125.333C53.1474 125.082 52.9682 124.763 52.8553 124.376C52.7409 123.985 52.7203 123.62 52.7935 123.282C52.8604 122.94 53.0112 122.646 53.246 122.401C53.4808 122.155 53.7816 121.979 54.1485 121.872L55.7399 121.41C56.1117 121.302 56.4653 121.288 56.8006 121.367C57.1359 121.447 57.4263 121.613 57.6718 121.864C57.9109 122.112 58.0876 122.431 58.202 122.822ZM57.3022 123.084C57.2226 122.811 57.0714 122.616 56.8487 122.498C56.6259 122.38 56.3708 122.363 56.0832 122.447L54.4472 122.922C54.1597 123.006 53.9538 123.157 53.8295 123.376C53.6988 123.591 53.674 123.837 53.7551 124.115C53.8347 124.387 53.9883 124.582 54.216 124.698C54.4373 124.811 54.6917 124.826 54.9793 124.743L56.6153 124.267C56.9028 124.184 57.1095 124.035 57.2352 123.821C57.3595 123.602 57.3818 123.356 57.3022 123.084Z" fill="white"/>
<path d="M56.604 100.886L51.0494 99.9374L51.4216 97.7487C51.4931 97.328 51.6345 96.9832 51.8458 96.7145C52.0553 96.4456 52.3152 96.2576 52.6255 96.1508C52.9342 96.0418 53.2731 96.0188 53.6419 96.0818C54.0108 96.1447 54.3227 96.2798 54.5778 96.4868C54.8328 96.6939 55.0134 96.9616 55.1194 97.29C55.2257 97.6167 55.2427 97.9931 55.1702 98.4192L54.933 99.8142L53.9918 99.6536L54.1968 98.4482C54.2352 98.2225 54.228 98.0298 54.1751 97.8703C54.1207 97.7086 54.03 97.5798 53.9031 97.4838C53.7746 97.3857 53.6191 97.3211 53.4365 97.2899C53.2521 97.2584 53.0848 97.268 52.9348 97.3185C52.7833 97.367 52.657 97.4588 52.5559 97.5939C52.453 97.7287 52.3821 97.9099 52.3435 98.1374L52.209 98.9284L56.8034 99.7126L56.604 100.886Z" fill="white"/>
<path d="M58.2591 92.9377L52.8989 91.1987L53.2657 90.067L57.6916 91.5029L58.4355 89.2082L59.3699 89.5113L58.2591 92.9377Z" fill="white"/>
<path d="M61.0504 85.4653L60.4802 86.6055L56.3084 82.3487L56.9941 80.9776L62.9025 81.7622L62.3322 82.9023L57.813 82.2192L57.7933 82.2585L61.0504 85.4653ZM59.0335 84.5462L60.3804 81.8531L61.2123 82.2689L59.8654 84.9621L59.0335 84.5462Z" fill="white"/>
<path d="M59.996 75.6843L60.7807 74.6071L63.4987 74.9973L63.5311 74.9529L62.324 72.4883L63.1086 71.4111L64.8462 75.2129L66.4572 76.3845L65.7615 77.3396L64.1506 76.1679L59.996 75.6843Z" fill="white"/>
<path d="M75.7822 63.0541C76.1701 63.5304 76.4099 64.0089 76.5015 64.4898C76.5945 64.9694 76.5578 65.4234 76.3914 65.8516C76.2252 66.2772 75.9495 66.6465 75.5641 66.9596C75.1759 67.2751 74.7557 67.47 74.3035 67.5444C73.8513 67.6188 73.3995 67.5618 72.9481 67.3733C72.4968 67.1848 72.0777 66.8531 71.6909 66.3782C71.3029 65.9019 71.0624 65.4239 70.9694 64.9443C70.8764 64.4646 70.913 64.0119 71.0791 63.5863C71.2441 63.1593 71.5207 62.7881 71.9089 62.4727C72.2943 62.1595 72.7131 61.9658 73.1653 61.8913C73.6177 61.8143 74.0697 61.8701 74.521 62.0586C74.9738 62.246 75.3942 62.5778 75.7822 63.0541ZM74.8457 63.8149C74.5944 63.5064 74.3362 63.2838 74.0712 63.1471C73.8076 63.0092 73.5481 62.9531 73.2925 62.9788C73.0369 63.0045 72.7975 63.108 72.5743 63.2894C72.351 63.4708 72.2008 63.6839 72.1236 63.9285C72.0464 64.1732 72.0478 64.439 72.128 64.7259C72.2095 65.0117 72.376 65.3089 72.6273 65.6174C72.8786 65.9259 73.1361 66.1491 73.3996 66.287C73.6646 66.4237 73.9249 66.4792 74.1805 66.4535C74.4361 66.4278 74.6755 66.3243 74.8987 66.1429C75.122 65.9615 75.2722 65.7484 75.3494 65.5038C75.4266 65.2591 75.4245 64.9939 75.3429 64.7081C75.2628 64.4212 75.097 64.1234 74.8457 63.8149Z" fill="white"/>
<path d="M80.6789 56.6631L81.7139 56.0751L83.5254 59.2525C83.7288 59.6093 83.8215 59.9699 83.8035 60.3344C83.7872 60.6979 83.6695 61.041 83.4505 61.3636C83.2305 61.6847 82.9182 61.9601 82.5135 62.1901C82.1071 62.421 81.7096 62.5488 81.3208 62.5736C80.9311 62.5968 80.5755 62.5226 80.254 62.351C79.9326 62.1794 79.6701 61.9152 79.4667 61.5584L77.6553 58.381L78.6903 57.793L80.4513 60.882C80.5576 61.0684 80.6926 61.2109 80.8565 61.3097C81.022 61.4075 81.2033 61.4553 81.4003 61.453C81.5973 61.4508 81.7954 61.393 81.9945 61.2799C82.1953 61.1658 82.3462 61.0253 82.4472 60.8582C82.5498 60.6903 82.6004 60.5108 82.599 60.3197C82.5992 60.1277 82.5462 59.9385 82.44 59.7522L80.6789 56.6631Z" fill="white"/>
<path d="M88.1218 59.2663L86.15 53.9923L88.2322 53.2173C88.6308 53.069 88.9976 53.0136 89.3326 53.0513C89.6688 53.0866 89.9591 53.2063 90.2038 53.4106C90.4496 53.6125 90.6376 53.8877 90.7679 54.2362C90.8989 54.5864 90.9359 54.9159 90.8791 55.2245C90.8216 55.5314 90.6745 55.8052 90.4376 56.0459C90.2025 56.286 89.8822 56.4814 89.4767 56.6323L88.0825 57.1512L87.7475 56.255L88.9613 55.8033C89.1743 55.724 89.3404 55.629 89.4594 55.5182C89.5785 55.4074 89.6505 55.2808 89.6756 55.1385C89.7024 54.9955 89.6834 54.8373 89.6185 54.664C89.5531 54.4888 89.4626 54.3543 89.3473 54.2603C89.2336 54.1657 89.0939 54.1141 88.9282 54.1053C88.7636 54.0942 88.5739 54.1286 88.3592 54.2086L87.6067 54.4886L89.2377 58.8511L88.1218 59.2663ZM90.0747 55.8055L92.2838 57.7174L91.0519 58.1759L88.8712 56.2534L90.0747 55.8055Z" fill="white"/>
<path d="M101.032 50.0385L101.819 55.612L100.64 55.7772L99.852 50.2036L101.032 50.0385Z" fill="white"/>
<path d="M110.09 49.5401L110.152 55.1677L109.123 55.1779L106.633 51.6601L106.592 51.6605L106.631 55.2025L105.44 55.2143L105.378 49.5866L106.424 49.5763L108.894 53.0915L108.944 53.0911L108.905 49.5518L110.09 49.5401Z" fill="white"/>
<path d="M114.584 50.8093L114.73 49.8393L119.306 50.5322L119.159 51.5022L117.454 51.2439L116.761 55.8383L115.597 55.662L116.289 51.0676L114.584 50.8093Z" fill="white"/>
<path d="M122.086 56.9242L123.776 51.5571L125.897 52.2253C126.303 52.3532 126.626 52.5349 126.867 52.7703C127.111 53.0046 127.267 53.2773 127.334 53.5885C127.404 53.8985 127.383 54.2309 127.271 54.5855C127.159 54.9419 126.985 55.2243 126.75 55.4326C126.516 55.6392 126.231 55.7645 125.896 55.8087C125.563 55.8535 125.19 55.8108 124.777 55.6807L123.357 55.2333L123.644 54.3213L124.88 54.7108C125.097 54.7792 125.287 54.8063 125.449 54.7921C125.611 54.7779 125.746 54.7224 125.853 54.6257C125.963 54.5295 126.045 54.3932 126.101 54.2167C126.157 54.0385 126.168 53.8769 126.135 53.732C126.103 53.5877 126.025 53.4612 125.899 53.3525C125.776 53.2427 125.605 53.1533 125.387 53.0844L124.62 52.8429L123.223 57.2822L122.086 56.9242ZM125.758 55.3964L126.325 58.2598L125.07 57.8645L124.532 55.0102L125.758 55.3964Z" fill="white"/>
<path d="M135.636 59.4235C135.36 59.9718 135.022 60.3859 134.62 60.666C134.22 60.9469 133.791 61.099 133.331 61.1225C132.874 61.1452 132.424 61.045 131.98 60.8219C131.532 60.5971 131.181 60.2939 130.928 59.9124C130.674 59.5308 130.54 59.0958 130.527 58.6075C130.514 58.1191 130.645 57.6017 130.919 57.055C131.195 56.5067 131.532 56.0922 131.932 55.8113C132.332 55.5304 132.76 55.3786 133.217 55.356C133.675 55.3317 134.128 55.4319 134.575 55.6567C135.019 55.8798 135.368 56.1821 135.622 56.5637C135.878 56.9445 136.013 57.379 136.026 57.8674C136.041 58.3565 135.911 58.8752 135.636 59.4235ZM134.556 58.8814C134.735 58.5262 134.832 58.2 134.848 57.9026C134.865 57.6061 134.81 57.3466 134.681 57.1243C134.553 56.9019 134.36 56.7262 134.103 56.5969C133.845 56.4676 133.589 56.4179 133.334 56.4476C133.079 56.4773 132.837 56.5873 132.608 56.7776C132.38 56.9688 132.177 57.242 131.999 57.5971C131.82 57.9523 131.722 58.2781 131.705 58.5747C131.689 58.872 131.745 59.1319 131.873 59.3542C132.002 59.5766 132.195 59.7524 132.452 59.8816C132.709 60.0109 132.966 60.0606 133.221 60.0309C133.476 60.0012 133.717 59.8908 133.945 59.6996C134.174 59.5093 134.378 59.2365 134.556 58.8814Z" fill="white"/>
<path d="M145.788 63.0898L143.974 67.1929L144.013 67.2275L147.87 64.9297L148.86 65.8042L143.674 68.7316L142.523 67.7151L144.797 62.2135L145.788 63.0898Z" fill="white"/>
<path d="M152.597 69.8507L148.353 73.5479L147.57 72.6507L151.814 68.9535L152.597 69.8507Z" fill="white"/>
<path d="M151.776 78.0216L150.667 76.3609L155.354 73.2419L156.472 74.9163C156.786 75.3875 156.963 75.8556 157.003 76.3205C157.043 76.7844 156.95 77.2242 156.723 77.6397C156.497 78.0567 156.141 78.4271 155.654 78.751C155.166 79.0759 154.685 79.2629 154.211 79.3119C153.737 79.3624 153.293 79.2785 152.876 79.0603C152.46 78.8436 152.094 78.4974 151.776 78.0216ZM152.177 76.7864L152.597 77.4154C152.793 77.7082 153.009 77.9199 153.246 78.0507C153.486 78.1819 153.749 78.2247 154.036 78.1792C154.325 78.1341 154.645 77.9954 154.994 77.7629C155.34 77.5324 155.589 77.293 155.741 77.0446C155.893 76.7977 155.955 76.5399 155.925 76.2711C155.896 76.0023 155.783 75.7215 155.587 75.4287L155.166 74.7974L152.177 76.7864Z" fill="white"/>
<path d="M155.211 83.7426L160.325 81.3852L161.919 84.8287L161.027 85.2397L159.933 82.8766L158.715 83.4383L159.727 85.6242L158.835 86.0352L157.824 83.8492L156.603 84.4121L157.701 86.7852L156.81 87.1961L155.211 83.7426Z" fill="white"/>
<path d="M162.305 94.9073C161.714 95.0752 161.179 95.106 160.701 95C160.223 94.8957 159.82 94.6825 159.491 94.3605C159.165 94.0397 158.934 93.6406 158.797 93.163C158.66 92.6819 158.646 92.2191 158.755 91.7746C158.865 91.3301 159.095 90.938 159.446 90.5982C159.797 90.2584 160.267 90.0049 160.856 89.8375C161.447 89.6697 161.981 89.6379 162.459 89.7422C162.937 89.8465 163.339 90.059 163.665 90.3798C163.993 90.7001 164.226 91.1007 164.363 91.5818C164.5 92.0594 164.513 92.5204 164.404 92.9649C164.297 93.4107 164.068 93.8035 163.717 94.1433C163.366 94.4848 162.895 94.7395 162.305 94.9073ZM161.973 93.7469C162.356 93.6382 162.662 93.4892 162.892 93.3001C163.123 93.1126 163.276 92.8965 163.353 92.6518C163.43 92.407 163.429 92.1463 163.35 91.8697C163.271 91.593 163.134 91.3709 162.94 91.2033C162.745 91.0357 162.5 90.9319 162.204 90.892C161.909 90.8539 161.57 90.8892 161.188 90.9979C160.805 91.1066 160.498 91.2547 160.268 91.4421C160.038 91.6313 159.884 91.8483 159.807 92.0931C159.731 92.3378 159.732 92.5985 159.811 92.8752C159.89 93.1518 160.027 93.374 160.221 93.5416C160.416 93.7092 160.661 93.812 160.956 93.8502C161.251 93.8901 161.59 93.8556 161.973 93.7469Z" fill="white"/>
<path d="M164.744 104.273C164.745 104.883 164.249 105.378 163.638 105.378C163.027 105.377 162.531 104.882 162.531 104.272C162.53 103.661 163.026 103.166 163.637 103.167C164.248 103.167 164.744 103.662 164.744 104.273Z" fill="white"/>
<path d="M54.9433 110.649C54.9437 111.259 54.4484 111.754 53.8372 111.754C53.226 111.753 52.7302 111.258 52.7299 110.648C52.7296 110.037 53.2248 109.542 53.836 109.543C54.4473 109.543 54.943 110.038 54.9433 110.649Z" fill="white"/>
<defs>
<filter id="filter0_b_3_5209" x="-11.937" y="-12.8303" width="239.81" height="239.731" filterUnits="userSpaceOnUse" color-interpolation-filters="sRGB">
<feFlood flood-opacity="0" result="BackgroundImageFix"/>
<feGaussianBlur in="BackgroundImageFix" stdDeviation="25"/>
<feComposite in2="SourceAlpha" operator="in" result="effect1_backgroundBlur_3_5209"/>
<feBlend mode="normal" in="SourceGraphic" in2="effect1_backgroundBlur_3_5209" result="shape"/>
</filter>
</defs>
</svg>
