<svg width="32" height="32" viewBox="0 0 32 32" fill="none" xmlns="http://www.w3.org/2000/svg">
<g clip-path="url(#clip0_3_5505)">
<path d="M14.1047 5.65649H13.1643C5.90552 5.65649 0 11.562 0 18.8208C0 26.0796 5.90552 31.9852 13.1643 31.9852C13.4807 31.9852 13.794 31.9727 14.1047 31.9505L14.7315 24.6508L14.1047 17.8805V5.65649Z" fill="#7E77FF"/>
<path d="M14.1047 17.8806V31.9506C14.7452 31.9049 15.3732 31.8141 15.9854 31.68C21.8931 30.385 26.3288 25.1117 26.3288 18.8209V17.8806H15.9854H14.1047Z" fill="#635BFF"/>
<path d="M31.97 15.0306C31.843 10.9179 30.2246 7.11549 27.4131 4.32415C24.6138 1.5451 20.892 0.0146484 16.933 0.0146484H15.9927V15.9999H31.9999L31.97 15.0306Z" fill="#BB64FF"/>
<path d="M6.58228 14.1194H9.40321V16H6.58228V14.1194Z" fill="#E9F1FF"/>
<path d="M4.70166 17.8806H10.3435V19.7612H4.70166V17.8806Z" fill="#E9F1FF"/>
</g>
<defs>
<clipPath id="clip0_3_5505">
<rect width="32" height="32" fill="white"/>
</clipPath>
</defs>
</svg>
