<svg width="66" height="68" viewBox="0 0 66 68" fill="none" xmlns="http://www.w3.org/2000/svg">
<path fill-rule="evenodd" clip-rule="evenodd" d="M61.875 68C64.0841 68 65.875 66.2091 65.875 64L65.875 38C65.875 35.7909 64.0841 34 61.875 34L38 34C35.7909 34 34 32.2091 34 30L34 4C34 1.79086 32.2091 -1.47158e-06 30 -1.56815e-06L3.99999 -2.70464e-06C1.79086 -2.80121e-06 -7.70768e-06 1.79086 -7.80424e-06 4L-8.94074e-06 30C-9.0373e-06 32.2091 1.79085 34 3.99999 34L27.875 34C30.0841 34 31.875 35.7909 31.875 38L31.875 64C31.875 66.2091 33.6659 68 35.875 68L61.875 68Z" fill="#F0F2FF"/>
</svg>
